<?xml version="1.0" standalone="no"?>
<!DOCTYPE svg PUBLIC "-//W3C//DTD SVG 20010904//EN"
 "http://www.w3.org/TR/2001/REC-SVG-20010904/DTD/svg10.dtd">
<svg version="1.0" xmlns="http://www.w3.org/2000/svg"
 width="1024.000000pt" height="1024.000000pt" viewBox="0 0 1024.000000 1024.000000"
 preserveAspectRatio="xMidYMid meet">
<metadata>
Created by potrace 1.14, written by Peter Selinger 2001-2017
</metadata>
<g transform="translate(0.000000,1024.000000) scale(0.100000,-0.100000)"
fill="#000000" stroke="none">
<path d="M0 5120 l0 -5120 5120 0 5120 0 0 5120 0 5120 -5120 0 -5120 0 0
-5120z m3717 3725 c315 -67 639 -358 823 -740 121 -250 187 -513 197 -782 15
-381 -96 -721 -302 -927 -180 -180 -474 -258 -720 -192 -226 61 -480 260 -655
512 -225 324 -356 804 -322 1181 52 589 367 957 824 962 48 1 117 -6 155 -14z
m3141 0 c319 -67 532 -303 638 -707 100 -385 26 -880 -191 -1273 -168 -304
-454 -562 -714 -646 -205 -66 -430 -43 -609 63 -82 48 -208 179 -264 275 -139
236 -208 564 -180 854 54 552 318 1038 702 1293 204 135 416 184 618 141z
m-5086 -2130 c244 -21 556 -221 733 -470 125 -175 219 -440 240 -680 19 -204
-55 -478 -176 -656 -177 -261 -508 -381 -836 -303 -38 9 -122 42 -188 75 -237
116 -421 300 -539 543 -158 322 -187 657 -82 950 98 275 273 447 529 520 61
18 196 35 232 30 11 -2 50 -5 87 -9z m6941 0 c83 -7 217 -51 294 -96 127 -75
254 -232 322 -396 62 -150 76 -230 76 -423 -1 -149 -4 -189 -24 -270 -61 -247
-162 -437 -320 -603 -142 -150 -336 -269 -516 -318 -115 -32 -298 -32 -414 -1
-264 71 -445 251 -545 546 -116 337 -47 760 176 1083 136 197 393 386 613 452
69 21 210 41 250 35 11 -2 51 -5 88 -9z m-3338 -1081 c410 -71 794 -256 1255
-608 462 -351 858 -775 1174 -1259 296 -451 462 -843 517 -1222 18 -123 15
-345 -5 -440 -64 -294 -271 -512 -596 -630 -150 -54 -287 -76 -505 -82 -362
-10 -585 31 -1185 217 -470 146 -656 184 -890 184 -233 1 -436 -41 -880 -179
-398 -124 -672 -190 -899 -216 -137 -15 -466 -6 -586 16 -399 74 -682 286
-786 588 -38 110 -49 188 -49 340 0 541 307 1204 879 1897 122 148 453 479
601 601 116 96 300 236 420 320 281 198 626 368 882 435 209 55 470 70 653 38z"/>
</g>
</svg>
