<?xml version="1.0" standalone="no"?>
<!DOCTYPE svg PUBLIC "-//W3C//DTD SVG 20010904//EN"
 "http://www.w3.org/TR/2001/REC-SVG-20010904/DTD/svg10.dtd">
<svg version="1.0" xmlns="http://www.w3.org/2000/svg"
 width="1024.000000pt" height="1024.000000pt" viewBox="0 0 1024.000000 1024.000000"
 preserveAspectRatio="xMidYMid meet">
<metadata>
Created by potrace 1.14, written by Peter Selinger 2001-2017
</metadata>
<g transform="translate(0.000000,1024.000000) scale(0.100000,-0.100000)"
fill="#000000" stroke="none">
<path d="M3302 9059 c-97 -21 -184 -58 -267 -113 -66 -43 -205 -181 -205 -202
0 -8 -4 -14 -10 -14 -5 0 -10 -7 -10 -15 0 -8 -4 -15 -10 -15 -5 0 -10 -6 -10
-14 0 -8 -3 -16 -7 -18 -8 -3 -68 -116 -68 -127 0 -3 -3 -10 -6 -16 -6 -10
-33 -85 -34 -95 0 -3 -3 -9 -6 -15 -5 -8 -21 -65 -20 -72 0 -2 -5 -17 -10 -35
-5 -18 -11 -44 -14 -58 -3 -14 -7 -34 -9 -46 -20 -101 -27 -350 -13 -474 14
-118 58 -310 98 -428 22 -65 41 -122 42 -129 7 -28 150 -303 158 -303 5 0 9
-6 9 -13 0 -7 9 -23 20 -35 11 -12 20 -24 20 -27 0 -9 121 -154 171 -204 30
-31 116 -106 143 -126 16 -11 33 -25 40 -31 56 -52 261 -152 348 -170 13 -2
37 -7 53 -11 17 -3 80 -6 140 -6 167 1 314 47 446 138 55 39 152 133 179 175
8 12 21 28 28 36 6 7 12 17 12 23 0 6 4 11 9 11 5 0 13 10 17 23 3 12 15 34
26 50 11 15 17 27 14 27 -3 0 3 15 13 33 26 47 73 187 87 262 2 11 7 34 11 50
3 17 8 39 9 50 2 11 6 45 11 75 13 93 7 357 -11 470 -19 119 -63 294 -102 402
-29 81 -103 250 -113 258 -4 3 -12 19 -20 35 -19 44 -133 213 -183 269 -50 58
-142 150 -184 186 -68 57 -113 90 -123 90 -6 0 -11 5 -11 10 0 6 -7 10 -15 10
-8 0 -15 4 -15 8 0 9 -71 47 -82 44 -5 -1 -8 3 -8 8 0 6 -3 9 -7 8 -5 -1 -19
3 -33 9 -27 12 -62 26 -70 27 -3 1 -10 4 -16 8 -6 4 -26 10 -45 14 -19 3 -45
8 -59 11 -67 14 -229 9 -308 -8z"/>
<path d="M6630 9059 c-111 -26 -314 -120 -328 -151 -2 -5 -10 -8 -18 -8 -8 0
-14 -4 -14 -8 0 -4 -15 -16 -32 -27 -37 -21 -242 -224 -273 -269 -11 -16 -26
-35 -32 -42 -7 -7 -13 -17 -13 -23 0 -6 -4 -11 -10 -11 -5 0 -10 -6 -10 -14 0
-8 -3 -16 -7 -18 -11 -4 -63 -85 -63 -97 0 -5 -7 -14 -15 -21 -8 -7 -12 -16
-9 -21 3 -5 2 -9 -3 -9 -7 0 -57 -95 -58 -111 0 -3 -8 -21 -17 -40 -25 -52
-57 -135 -62 -161 -3 -13 -5 -24 -7 -25 -1 -2 -2 -6 -3 -10 -1 -5 -4 -13 -8
-19 -4 -6 -9 -21 -12 -35 -9 -42 -14 -63 -25 -104 -10 -38 -17 -75 -27 -140
-3 -16 -7 -41 -9 -55 -21 -137 -22 -414 0 -490 2 -8 7 -31 10 -50 27 -164 116
-391 203 -513 106 -151 243 -252 416 -308 124 -40 299 -44 431 -10 116 31 276
115 370 196 17 14 50 42 74 63 24 20 60 54 80 76 20 21 50 53 66 70 17 18 41
48 55 66 14 18 30 38 35 44 22 25 55 76 55 85 0 5 3 11 8 13 14 6 147 258 136
258 -2 0 2 10 10 23 8 12 15 24 15 27 0 8 12 43 22 65 6 12 12 30 14 40 2 11
4 21 5 23 2 1 3 5 5 10 1 4 4 14 8 22 4 13 14 48 22 85 2 6 8 28 13 50 11 39
15 61 27 139 4 21 8 48 11 60 23 121 20 386 -7 521 -6 27 -13 64 -15 80 -15
90 -142 401 -173 425 -4 3 -15 18 -25 34 -40 62 -162 186 -184 186 -5 0 -17 9
-27 20 -10 11 -24 20 -32 20 -7 0 -13 5 -13 12 0 6 -3 9 -6 5 -3 -3 -25 5 -49
17 -37 20 -55 27 -107 41 -5 2 -9 3 -10 5 -2 1 -10 3 -18 5 -8 2 -28 6 -45 10
-65 16 -248 12 -325 -6z"/>
<path d="M1389 6815 c-2 -2 -26 -6 -54 -9 -74 -8 -180 -43 -269 -89 -92 -48
-236 -182 -276 -258 -7 -13 -16 -26 -20 -29 -24 -17 -119 -256 -135 -339 -26
-137 -26 -356 0 -481 16 -82 61 -234 73 -255 4 -5 7 -15 8 -22 4 -24 94 -195
135 -255 58 -85 64 -92 160 -187 93 -94 124 -121 138 -121 5 0 11 -4 13 -9 4
-10 116 -83 122 -79 2 2 13 -5 23 -15 11 -9 23 -14 26 -10 4 3 7 1 7 -6 0 -7
5 -9 10 -6 6 3 10 1 10 -4 0 -6 3 -10 8 -9 4 1 25 -6 47 -16 22 -10 47 -19 55
-21 8 -2 44 -11 80 -21 67 -18 247 -24 342 -11 55 7 183 49 241 79 107 53 219
155 292 263 22 33 105 198 109 218 2 6 6 20 10 29 4 9 9 22 10 30 1 7 7 29 14
48 49 151 48 391 -3 600 -41 167 -144 399 -214 479 -12 13 -21 28 -21 33 0 14
-202 212 -237 233 -18 11 -33 23 -33 27 0 4 -7 8 -15 8 -8 0 -15 5 -15 10 0 6
-7 10 -15 10 -8 0 -15 5 -15 10 0 6 -6 10 -14 10 -8 0 -16 4 -18 9 -4 11 -158
95 -158 86 0 -4 -11 0 -24 9 -14 8 -39 18 -57 21 -18 3 -36 8 -41 11 -5 3 -18
7 -31 10 -12 2 -33 6 -47 10 -29 6 -216 15 -221 9z"/>
<path d="M8728 6815 c-2 -2 -25 -6 -53 -9 -94 -11 -256 -73 -360 -139 -27 -17
-52 -34 -55 -37 -3 -3 -23 -17 -45 -31 -68 -45 -175 -142 -231 -211 -45 -54
-124 -172 -124 -185 0 -7 -4 -13 -8 -13 -5 0 -19 -24 -32 -52 -12 -29 -32 -73
-43 -98 -10 -24 -21 -51 -22 -60 -2 -8 -4 -16 -5 -17 -2 -2 -3 -6 -4 -10 -1
-5 -4 -12 -7 -18 -7 -10 -14 -38 -34 -127 -3 -13 -7 -34 -10 -48 -3 -14 -8
-36 -11 -50 -13 -53 -12 -305 2 -380 44 -235 132 -411 274 -550 85 -84 118
-110 137 -110 7 0 13 -4 13 -9 0 -9 60 -37 73 -33 4 1 7 -3 7 -9 0 -5 4 -8 9
-4 5 3 12 1 15 -4 3 -4 20 -12 38 -16 18 -4 38 -9 43 -11 107 -37 313 -39 450
-4 90 22 221 79 286 123 19 13 42 26 52 30 9 3 17 11 17 17 0 5 5 10 11 10 6
0 16 6 24 13 7 6 28 23 46 37 42 32 137 126 169 169 14 17 35 44 48 59 13 15
28 36 33 47 11 24 32 58 40 65 3 3 20 37 38 75 18 39 37 78 42 88 15 28 58
157 52 157 -3 0 -1 6 5 13 5 6 13 29 16 51 4 21 8 41 10 45 4 6 12 49 23 131
11 79 5 269 -12 352 -52 253 -185 482 -349 603 -38 28 -166 96 -166 89 0 -4
-6 -1 -14 5 -8 7 -25 14 -37 17 -40 9 -54 12 -54 14 0 2 -15 5 -70 15 -39 7
-222 15 -227 10z"/>
<path d="M5087 5684 c-1 -1 -38 -5 -82 -9 -79 -6 -130 -12 -130 -15 0 -1 -15
-3 -33 -6 -93 -12 -378 -99 -445 -136 -12 -7 -27 -13 -33 -14 -12 -2 -202 -97
-269 -134 -191 -106 -591 -384 -699 -485 -6 -6 -33 -28 -61 -50 -27 -22 -57
-46 -66 -55 -9 -8 -51 -46 -94 -85 -98 -87 -271 -260 -350 -349 -33 -37 -73
-82 -90 -101 -28 -31 -43 -48 -121 -145 -16 -19 -33 -40 -39 -46 -5 -6 -17
-22 -25 -34 -8 -12 -20 -28 -25 -34 -6 -6 -22 -27 -35 -46 -13 -19 -32 -43
-41 -53 -9 -10 -25 -33 -35 -52 -10 -19 -22 -35 -26 -35 -5 0 -8 -6 -8 -14 0
-8 -3 -16 -7 -18 -14 -6 -100 -133 -109 -160 -4 -10 -9 -18 -13 -18 -4 0 -15
-15 -24 -32 -10 -18 -31 -55 -48 -83 -17 -27 -35 -62 -42 -77 -6 -16 -15 -28
-19 -28 -4 0 -8 -5 -8 -10 0 -6 -11 -28 -25 -50 -14 -22 -22 -40 -19 -40 4 0
-1 -9 -12 -21 -10 -12 -18 -23 -17 -25 2 -2 -17 -46 -41 -96 -40 -86 -57 -125
-60 -138 -1 -3 -8 -16 -16 -30 -7 -14 -12 -25 -11 -25 1 0 -3 -13 -9 -30 -7
-16 -13 -34 -14 -40 -2 -5 -6 -17 -9 -25 -14 -37 -52 -156 -54 -170 -1 -8 -4
-25 -7 -37 -3 -13 -8 -31 -10 -41 -2 -9 -9 -35 -14 -57 -6 -22 -13 -60 -16
-85 -3 -25 -8 -56 -12 -70 -3 -14 -7 -95 -10 -180 -3 -126 0 -173 16 -251 21
-101 65 -220 100 -268 11 -16 20 -32 20 -36 0 -29 171 -203 247 -252 15 -9 31
-22 35 -28 5 -6 8 -6 8 0 0 6 3 5 8 -1 12 -18 198 -103 262 -119 3 -1 12 -5
20 -8 8 -4 38 -12 65 -17 28 -6 60 -12 73 -15 57 -13 72 -15 207 -30 57 -6
345 -7 390 0 17 2 55 7 85 10 30 3 93 13 140 21 47 9 98 18 114 21 46 8 334
80 406 102 36 11 110 33 165 51 663 209 965 258 1260 206 17 -2 48 -7 71 -11
22 -3 55 -10 72 -15 18 -5 32 -7 32 -5 0 2 18 -2 40 -10 22 -8 40 -12 40 -10
0 3 11 0 25 -5 14 -5 37 -12 50 -15 14 -3 36 -7 49 -10 13 -3 42 -11 65 -20
23 -8 42 -14 44 -14 1 1 22 -5 47 -12 25 -7 47 -13 50 -14 3 -1 39 -12 80 -24
41 -13 75 -22 75 -20 0 1 10 -3 23 -10 13 -7 31 -14 40 -16 9 -3 55 -16 102
-30 47 -15 92 -28 100 -30 8 -2 27 -8 43 -14 15 -6 27 -9 27 -6 0 2 18 -2 40
-10 22 -8 40 -12 40 -10 0 2 18 -2 39 -10 22 -7 56 -16 78 -20 21 -3 54 -10
73 -15 19 -5 51 -11 70 -14 19 -3 47 -8 63 -11 66 -12 85 -15 142 -21 33 -3
71 -8 85 -10 28 -5 329 -5 376 0 29 3 127 16 169 22 66 9 212 50 289 81 243
97 430 260 519 453 37 81 57 130 51 130 -3 0 0 8 5 18 8 16 12 32 28 132 8 49
8 201 0 291 -24 284 -117 588 -280 914 -72 142 -166 309 -178 313 -5 2 -9 9
-9 14 0 13 -61 112 -72 116 -5 2 -8 8 -8 13 0 8 -65 105 -80 119 -3 3 -11 17
-18 31 -8 14 -23 38 -35 52 -12 14 -40 51 -62 81 -22 31 -43 56 -47 56 -3 0
-9 8 -12 18 -3 9 -16 28 -29 42 -12 14 -40 47 -62 75 -22 27 -44 55 -50 61
-169 195 -321 353 -465 484 -45 41 -94 86 -109 100 -15 14 -42 36 -60 50 -18
13 -43 33 -55 45 -29 26 -84 71 -114 93 -13 9 -38 29 -55 44 -18 15 -35 28
-38 28 -3 0 -17 9 -30 20 -13 12 -62 47 -108 78 -47 31 -94 65 -105 75 -11 9
-26 17 -33 17 -7 0 -13 4 -13 10 0 5 -11 12 -25 16 -14 3 -25 10 -25 15 0 5
-5 9 -11 9 -6 0 -25 10 -42 23 -40 28 -126 75 -247 133 -52 25 -110 53 -129
62 -19 10 -37 17 -40 18 -3 0 -19 6 -36 13 -16 7 -34 14 -40 15 -5 2 -19 6
-30 10 -11 5 -38 15 -60 23 -22 8 -50 17 -62 19 -12 2 -34 9 -48 14 -14 5 -25
7 -25 5 0 -2 -11 0 -25 5 -28 11 -61 18 -115 26 -19 2 -46 7 -60 9 -57 11
-276 26 -283 19z"/>
</g>
</svg>
